<?xml version="1.0" encoding="UTF-8"?>
<svg xmlns="http://www.w3.org/2000/svg" xmlns:xlink="http://www.w3.org/1999/xlink" width="3840" height="2160" viewBox="0 0 3840 2160">
<defs>
<g>
<g id="glyph-0-0">
<path d="M 4.167969 -0.0507812 C 4.964844 0.0859375 5.503906 0.15625 5.78125 0.15625 C 6.058594 0.15625 6.199219 -0.0351562 6.199219 -0.417969 L 6.199219 -3.75 L 3.59375 -3.75 C 3.140625 -3.75 2.726562 -3.699219 2.34375 -3.59375 L 1.875 -4.0625 L 6.199219 -4.0625 L 6.199219 -5.832031 L 5.15625 -5.832031 C 4.703125 -5.832031 4.289062 -5.78125 3.90625 -5.675781 L 3.4375 -6.144531 L 8.28125 -6.144531 L 8.90625 -6.769531 L 9.84375 -5.832031 L 6.925781 -5.832031 L 6.925781 -4.0625 L 9.636719 -4.0625 L 10.3125 -4.738281 L 11.300781 -3.75 L 6.925781 -3.75 L 6.925781 -0.0507812 C 6.960938 0.640625 6.578125 1.09375 5.78125 1.300781 C 5.816406 0.921875 5.261719 0.539062 4.113281 0.15625 L 4.167969 -0.0507812 M 4.167969 -2.96875 L 5.105469 -2.136719 L 4.53125 -1.925781 C 3.246094 -0.640625 2.015625 0.296875 0.832031 0.886719 L 0.730469 0.730469 C 1.492188 0.140625 2.160156 -0.46875 2.734375 -1.09375 C 3.308594 -1.71875 3.785156 -2.34375 4.167969 -2.96875 M 7.761719 -2.65625 L 7.863281 -2.8125 C 8.976562 -2.292969 9.84375 -1.832031 10.46875 -1.433594 C 11.09375 -1.03125 11.433594 -0.667969 11.484375 -0.339844 C 11.535156 -0.0078125 11.511719 0.242188 11.40625 0.417969 C 11.300781 0.589844 11.214844 0.675781 11.144531 0.675781 C 11.078125 0.675781 10.988281 0.589844 10.886719 0.417969 C 10.675781 0.105469 10.320312 -0.320312 9.816406 -0.859375 C 9.3125 -1.398438 8.628906 -1.996094 7.761719 -2.65625 M 6.300781 -10.988281 L 7.394531 -10.3125 L 6.925781 -10 C 7.515625 -9.167969 8.324219 -8.359375 9.347656 -7.578125 C 10.375 -6.796875 11.511719 -6.285156 12.761719 -6.042969 L 12.761719 -5.832031 C 12.101562 -5.695312 11.753906 -5.453125 11.71875 -5.105469 C 10.953125 -5.453125 10.113281 -6.03125 9.191406 -6.847656 C 8.273438 -7.664062 7.449219 -8.644531 6.71875 -9.792969 C 5.746094 -8.332031 4.714844 -7.1875 3.621094 -6.355469 C 2.527344 -5.519531 1.546875 -4.914062 0.675781 -4.53125 L 0.574219 -4.6875 C 1.960938 -5.484375 3.175781 -6.511719 4.21875 -7.761719 C 5.261719 -9.011719 5.953125 -10.085938 6.300781 -10.988281 Z "/>
</g>
<g id="glyph-0-1">
<path d="M 2.238281 -6.457031 L 1.925781 -4.21875 L 3.957031 -4.21875 L 4.269531 -4.738281 L 5.105469 -4.167969 L 4.738281 -3.800781 C 4.636719 -1.71875 4.4375 -0.425781 4.140625 0.078125 C 3.84375 0.582031 3.367188 0.921875 2.707031 1.09375 C 2.671875 0.640625 2.257812 0.296875 1.457031 0.0507812 L 1.457031 -0.15625 C 1.875 -0.0859375 2.273438 -0.0507812 2.65625 -0.0507812 C 3.003906 -0.0507812 3.246094 -0.121094 3.386719 -0.261719 C 3.523438 -0.398438 3.644531 -0.746094 3.75 -1.300781 C 3.855469 -1.859375 3.941406 -2.726562 4.011719 -3.90625 L 1.925781 -3.90625 L 1.5625 -3.542969 L 0.9375 -4.167969 C 1.144531 -4.234375 1.292969 -4.523438 1.378906 -5.027344 C 1.46875 -5.53125 1.546875 -6.265625 1.613281 -7.238281 L 2.292969 -6.769531 L 4.0625 -6.769531 L 4.0625 -9.324219 L 1.875 -9.324219 L 1.40625 -9.21875 L 0.988281 -9.636719 L 3.957031 -9.636719 L 4.324219 -10.15625 L 5.105469 -9.582031 L 4.738281 -9.269531 C 4.738281 -7.8125 4.757812 -6.824219 4.792969 -6.300781 L 4.0625 -5.9375 L 4.0625 -6.457031 L 2.238281 -6.457031 M 7.65625 -10.675781 C 8.28125 -10.363281 8.699219 -10.113281 8.90625 -9.921875 C 9.113281 -9.730469 9.203125 -9.515625 9.167969 -9.269531 C 9.132812 -9.027344 9.0625 -8.863281 8.957031 -8.777344 C 8.855469 -8.6875 8.765625 -8.644531 8.699219 -8.644531 C 8.59375 -8.644531 8.507812 -8.785156 8.4375 -9.0625 C 8.296875 -9.445312 8.003906 -9.949219 7.550781 -10.574219 L 7.65625 -10.675781 M 5.207031 -8.386719 L 10.832031 -8.386719 L 11.613281 -9.113281 L 12.605469 -8.074219 L 8.175781 -8.074219 L 9.324219 -7.394531 C 9.078125 -7.394531 8.785156 -7.171875 8.4375 -6.71875 C 8.089844 -6.234375 7.535156 -5.484375 6.769531 -4.480469 C 7.605469 -4.515625 8.453125 -4.546875 9.324219 -4.582031 C 9.808594 -5.3125 10.15625 -5.953125 10.363281 -6.511719 L 11.40625 -5.675781 C 11.234375 -5.675781 11.007812 -5.53125 10.730469 -5.234375 C 10.453125 -4.9375 10.035156 -4.390625 9.480469 -3.59375 C 8.890625 -2.796875 7.984375 -1.753906 6.769531 -0.46875 C 8.054688 -0.503906 9.480469 -0.574219 11.042969 -0.675781 C 10.695312 -1.300781 10.296875 -1.890625 9.84375 -2.449219 L 10 -2.550781 C 10.796875 -1.960938 11.398438 -1.449219 11.796875 -1.015625 C 12.195312 -0.582031 12.34375 -0.183594 12.238281 0.183594 C 12.136719 0.546875 12.003906 0.765625 11.847656 0.832031 C 11.691406 0.902344 11.578125 0.78125 11.511719 0.46875 C 11.40625 0.15625 11.285156 -0.140625 11.144531 -0.417969 C 9.097656 -0.140625 7.820312 0.0859375 7.316406 0.261719 C 6.8125 0.433594 6.492188 0.589844 6.355469 0.730469 L 5.730469 -0.363281 C 6.042969 -0.46875 6.519531 -0.875 7.160156 -1.589844 C 7.804688 -2.300781 8.488281 -3.210938 9.21875 -4.324219 C 7.726562 -4.113281 6.804688 -3.835938 6.457031 -3.488281 L 5.886719 -4.425781 C 6.234375 -4.496094 6.648438 -4.9375 7.136719 -5.753906 C 7.621094 -6.570312 7.984375 -7.34375 8.230469 -8.074219 L 6.925781 -8.074219 C 6.476562 -8.074219 6.058594 -8.019531 5.675781 -7.917969 Z "/>
</g>
<g id="glyph-0-2">
<path d="M 4.113281 -3.699219 C 3.976562 -3.246094 3.871094 -2.847656 3.800781 -2.5 C 4.148438 -1.945312 4.546875 -1.484375 5 -1.121094 C 5.453125 -0.753906 5.886719 -0.503906 6.300781 -0.363281 L 6.300781 -5.730469 L 3.386719 -5.730469 C 2.933594 -5.730469 2.515625 -5.675781 2.136719 -5.574219 L 1.667969 -6.042969 L 9.792969 -6.042969 L 10.519531 -6.769531 L 11.5625 -5.730469 L 7.03125 -5.730469 L 7.03125 -3.175781 L 9.375 -3.175781 L 10.050781 -3.855469 L 11.042969 -2.863281 L 7.03125 -2.863281 L 7.03125 -0.15625 C 8.003906 0.015625 8.957031 0.09375 9.894531 0.078125 C 10.832031 0.0625 11.683594 0.015625 12.449219 -0.0507812 L 12.449219 0.15625 C 11.859375 0.261719 11.492188 0.539062 11.355469 0.988281 C 9.546875 0.953125 8.203125 0.84375 7.316406 0.652344 C 6.433594 0.460938 5.71875 0.128906 5.183594 -0.339844 C 4.644531 -0.808594 4.148438 -1.421875 3.699219 -2.1875 C 3.386719 -1.390625 3.039062 -0.738281 2.65625 -0.234375 C 2.273438 0.269531 1.703125 0.78125 0.9375 1.300781 L 0.832031 1.144531 C 1.492188 0.519531 1.996094 -0.121094 2.34375 -0.78125 C 2.691406 -1.441406 2.925781 -2.09375 3.046875 -2.734375 C 3.167969 -3.375 3.246094 -4.027344 3.28125 -4.6875 L 4.53125 -4.0625 L 4.113281 -3.699219 M 5.675781 -10.730469 L 5.78125 -10.832031 C 6.441406 -10.484375 6.859375 -10.21875 7.03125 -10.027344 C 7.203125 -9.835938 7.292969 -9.652344 7.292969 -9.480469 C 7.292969 -9.304688 7.214844 -9.132812 7.058594 -8.957031 C 6.902344 -8.785156 6.804688 -8.699219 6.769531 -8.699219 C 6.632812 -8.699219 6.546875 -8.855469 6.511719 -9.167969 C 6.40625 -9.617188 6.128906 -10.140625 5.675781 -10.730469 M 10.207031 -6.925781 L 10.886719 -8.230469 L 2.605469 -8.230469 C 2.640625 -7.429688 2.542969 -6.96875 2.316406 -6.847656 C 2.09375 -6.726562 1.925781 -6.667969 1.824219 -6.667969 C 1.683594 -6.667969 1.554688 -6.710938 1.433594 -6.796875 C 1.3125 -6.882812 1.25 -6.945312 1.25 -6.980469 C 1.25 -7.117188 1.390625 -7.308594 1.667969 -7.550781 C 2.015625 -7.863281 2.257812 -8.421875 2.394531 -9.21875 L 2.605469 -9.21875 L 2.605469 -8.542969 L 10.78125 -8.542969 L 11.355469 -9.113281 L 12.238281 -8.074219 C 11.753906 -8.074219 11.128906 -7.65625 10.363281 -6.824219 Z "/>
</g>
<g id="glyph-0-3">
<path d="M 0.675781 -1.199219 C 1.71875 -1.476562 2.429688 -1.683594 2.8125 -1.824219 L 2.8125 -5.3125 L 2.550781 -5.3125 C 2.101562 -5.3125 1.683594 -5.261719 1.300781 -5.15625 L 0.832031 -5.625 L 2.8125 -5.625 L 2.8125 -8.800781 L 2.449219 -8.800781 C 1.996094 -8.800781 1.578125 -8.75 1.199219 -8.644531 L 0.730469 -9.113281 L 4.011719 -9.113281 L 4.636719 -9.738281 L 5.519531 -8.800781 L 3.488281 -8.800781 L 3.488281 -5.625 L 4.011719 -5.625 L 4.636719 -6.25 L 5.519531 -5.3125 L 3.488281 -5.3125 L 3.488281 -2.03125 L 5.625 -2.761719 L 5.675781 -2.550781 C 4.359375 -1.960938 3.039062 -1.335938 1.71875 -0.675781 L 1.300781 -0.261719 L 0.675781 -1.199219 M 5.832031 -3.75 C 5.867188 -4.859375 5.886719 -5.9375 5.886719 -6.980469 C 5.886719 -8.019531 5.867188 -9.097656 5.832031 -10.207031 L 6.511719 -9.738281 L 10.832031 -9.738281 L 11.199219 -10.207031 L 11.980469 -9.582031 L 11.5625 -9.269531 L 11.5625 -6.824219 C 11.5625 -5.710938 11.578125 -4.84375 11.613281 -4.21875 L 10.9375 -3.90625 L 10.9375 -4.53125 L 9.0625 -4.53125 L 9.0625 -2.292969 L 10.574219 -2.292969 L 11.199219 -2.917969 L 12.082031 -1.980469 L 9.0625 -1.980469 L 9.0625 0.15625 L 11.25 0.15625 L 11.925781 -0.519531 L 12.863281 0.46875 L 5.78125 0.46875 C 5.328125 0.46875 4.914062 0.519531 4.53125 0.625 L 4.0625 0.15625 L 8.4375 0.15625 L 8.4375 -1.980469 L 7.292969 -1.980469 C 6.839844 -1.980469 6.421875 -1.925781 6.042969 -1.824219 L 5.574219 -2.292969 L 8.4375 -2.292969 L 8.4375 -4.53125 L 6.511719 -4.53125 L 6.511719 -4.011719 L 5.832031 -3.75 M 6.511719 -9.425781 L 6.511719 -7.34375 L 8.4375 -7.34375 L 8.4375 -9.425781 L 6.511719 -9.425781 M 9.0625 -9.425781 L 9.0625 -7.34375 L 10.9375 -7.34375 L 10.9375 -9.425781 L 9.0625 -9.425781 M 6.511719 -7.03125 L 6.511719 -4.84375 L 8.4375 -4.84375 L 8.4375 -7.03125 L 6.511719 -7.03125 M 9.0625 -7.03125 L 9.0625 -4.84375 L 10.9375 -4.84375 L 10.9375 -7.03125 Z "/>
</g>
</g>
</defs>
<g fill="rgb(34.509804%, 76.862745%, 86.666667%)" fill-opacity="1">
<use xlink:href="#glyph-0-0" x="30" y="31.458008"/>
<use xlink:href="#glyph-0-1" x="43" y="31.458008"/>
<use xlink:href="#glyph-0-2" x="56" y="31.458008"/>
<use xlink:href="#glyph-0-3" x="69" y="31.458008"/>
</g>
</svg>
